# ProBuilder 4.4.0
# https://unity3d.com/unity/features/worldbuilding/probuilder
# 14/01/2021 15:55:38

mtllib ./Cube_(2).mtl
o Cube (2)

g Cube (2)
v -313 48 -2
v -313 48 1
v -330 48 -2
v -330 48 1
v -309 48 1
v -309 48 -2
v -309 -5 -2
v -309 -5 1
v -309 32 1
v -309 32 -2
v -330 -5 -2
v -313 -5 -2
v -313 32 -2
v -330 32 -2
v -313 -5 1
v -330 -5 1
v -330 32 1
v -313 32 1
v -221 48 1
v -221 48 -2
v -221 32 -2
v -221 32 1
v -221 40 1
v -221 40 -2
v -141 40 1
v -141 48 1
v -141 48 -2
v -141 40 -2
v -313 40 -2
v -330 40 -2
v -330 40 1
v -313 40 1
v -309 40 -2
v -309 40 1
v -169 48 1
v -169 40 1
v -169 48 -2
v -169 40 -2
v -169 31 1
v -141 31 1
v -141 31 -2
v -169 31 -2

vt 313 -2
vt 313 1
vt 330 -2
vt 330 1
vt 309 1
vt 309 -2
vt 2 -5
vt -1 -5
vt -1 32
vt 2 32
vt 330 -5
vt 313 -5
vt 313 32
vt 330 32
vt -313 -5
vt -330 -5
vt -330 32
vt -313 32
vt 1 -5
vt -2 -5
vt -2 32
vt 1 32
vt 309 -5
vt 309 32
vt -309 32
vt -309 -5
vt 221 1
vt 221 -2
vt -309 -2
vt -309 1
vt -221 -2
vt -221 1
vt -1 40
vt 2 40
vt -1 48
vt 2 48
vt 313 40
vt 330 40
vt 313 48
vt 330 48
vt -330 40
vt -313 40
vt -330 48
vt -313 48
vt -2 40
vt 1 40
vt -2 48
vt 1 48
vt 309 40
vt 309 48
vt -309 40
vt -309 48
vt -221 40
vt -221 32
vt -221 48
vt 221 40
vt 221 48
vt 221 32
vt -169 48
vt -169 40
vt -141 48
vt -141 40
vt 169 -2
vt 169 1
vt 141 -2
vt 141 1
vt 169 40
vt 169 48
vt 141 40
vt 141 48
vt -169 1
vt -169 -2
vt -141 1
vt -141 -2
vt -2 31
vt 1 31
vt -169 31
vt -141 31
vt -1 31
vt 2 31
vt 141 31
vt 169 31

vn 0 1 0
vn 1 0 0
vn 0 0 -1
vn 0 0 1
vn -1 0 0
vn 0 -1 0

usemtl ProBuilder_Default_URP
f 3/3/1 4/4/1 2/2/1 1/1/1
f 5/5/1 6/6/1 1/1/1 2/2/1
f 7/7/2 10/10/2 9/9/2 8/8/2
f 11/11/3 14/14/3 13/13/3 12/12/3
f 18/18/4 17/17/4 16/16/4 15/15/4
f 17/22/5 14/21/5 11/20/5 16/19/5
f 12/12/3 13/13/3 10/24/3 7/23/3
f 9/25/4 18/18/4 15/15/4 8/26/4
f 19/27/1 20/28/1 6/6/1 5/5/1
f 21/31/6 22/32/6 9/30/6 10/29/6
f 21/10/2 24/34/2 23/33/2 22/9/2
f 28/34/2 27/36/2 26/35/2 25/33/2
f 14/14/3 30/38/3 29/37/3 13/13/3
f 30/38/3 3/40/3 1/39/3 29/37/3
f 32/42/4 31/41/4 17/17/4 18/18/4
f 2/44/4 4/43/4 31/41/4 32/42/4
f 31/46/5 30/45/5 14/21/5 17/22/5
f 4/48/5 3/47/5 30/45/5 31/46/5
f 13/13/3 29/37/3 33/49/3 10/24/3
f 29/37/3 1/39/3 6/50/3 33/49/3
f 34/51/4 32/42/4 18/18/4 9/25/4
f 5/52/4 2/44/4 32/42/4 34/51/4
f 23/53/4 34/51/4 9/25/4 22/54/4
f 19/55/4 5/52/4 34/51/4 23/53/4
f 33/49/3 6/50/3 20/57/3 24/56/3
f 10/24/3 33/49/3 24/56/3 21/58/3
f 35/59/4 19/55/4 23/53/4 36/60/4
f 26/61/4 35/59/4 36/60/4 25/62/4
f 19/27/1 35/64/1 37/63/1 20/28/1
f 35/64/1 26/66/1 27/65/1 37/63/1
f 24/56/3 20/57/3 37/68/3 38/67/3
f 38/67/3 37/68/3 27/70/3 28/69/3
f 38/72/6 36/71/6 23/32/6 24/31/6
f 41/74/6 40/73/6 39/71/6 42/72/6
f 42/75/5 39/76/5 36/46/5 38/45/5
f 39/77/4 40/78/4 25/62/4 36/60/4
f 40/79/2 41/80/2 28/34/2 25/33/2
f 41/81/3 42/82/3 38/67/3 28/69/3

